Coordinates
version=1
nRows=13
nColumns=40
inDegrees=yes

Units are S.I. units (second, meters, Newtons, ...)
Angles are in degrees.

endheader
time	pelvis_tilt	pelvis_list	pelvis_rotation	pelvis_tx	pelvis_ty	pelvis_tz	hip_flexion_r	hip_adduction_r	hip_rotation_r	knee_angle_r	knee_angle_r_beta	ankle_angle_r	subtalar_angle_r	mtp_angle_r	hip_flexion_l	hip_adduction_l	hip_rotation_l	knee_angle_l	knee_angle_l_beta	ankle_angle_l	subtalar_angle_l	mtp_angle_l	lumbar_extension	lumbar_bending	lumbar_rotation	arm_flex_r	arm_add_r	arm_rot_r	elbow_flex_r	pro_sup_r	wrist_flex_r	wrist_dev_r	arm_flex_l	arm_add_l	arm_rot_l	elbow_flex_l	pro_sup_l	wrist_flex_l	wrist_dev_l
     48.89678571	     -6.71233821	     -8.74993328	      4.06992651	      1.04259988	      0.91439826	      0.48090147	      0.22531975	      9.31197200	    -17.38573614	      6.42744101	      6.42744101	     16.33999696	     10.71828926	     -2.25692446	     35.76355846	    -10.98059447	      0.07453618	     22.47366499	     22.47366499	      2.52917208	     -9.86244395	      9.28509945	    -10.42697049	      7.96916329	      6.19969093	     52.80714754	    -13.52115117	      6.99177517	    111.05904501	     43.81443552	      0.00000000	      0.00000000	    -19.00739676	     -8.03766556	      5.86403343	     33.82880651	     45.02315559	      0.00000000	      0.00000000
     48.90857143	     -6.68963917	     -8.65992053	      3.85981895	      1.04332650	      0.91323718	      0.47925391	     -0.08954640	      9.02086736	    -16.98119322	      7.18125984	      7.18125984	     17.12141692	     10.35875388	     -2.07990890	     35.39052119	    -10.77942193	      0.47403378	     23.60044049	     23.60044049	      2.42748626	    -10.64442621	      8.62253413	    -10.16659255	      7.78552676	      5.99295321	     52.88999002	    -13.20293248	      7.10216468	    112.45199438	     43.78779071	      0.00000000	      0.00000000	    -19.46952223	     -8.03085791	      6.06771609	     33.66191813	     44.99996034	      0.00000000	      0.00000000
     48.92035714	     -6.65274986	     -8.47964560	      3.65758838	      1.04398256	      0.91240192	      0.47750049	     -0.30872856	      8.60457648	    -16.52145947	      8.13266463	      8.13266463	     17.87055346	      9.74267431	     -1.84959601	     34.98131082	    -10.47440497	      0.88384719	     24.59675898	     24.59675898	      2.46297151	    -11.52578691	      8.05629892	     -9.96857589	      7.48657837	      5.89464183	     52.68926219	    -13.17169032	      7.26031555	    114.02790613	     43.75203315	      0.00000000	      0.00000000	    -19.75368764	     -8.05636459	      6.16982737	     33.53294123	     44.99267501	      0.00000000	      0.00000000
     48.93214286	     -6.62093036	     -8.21709879	      3.48745326	      1.04456509	      0.91190748	      0.47557937	     -0.44817263	      8.08231760	    -15.99829973	      9.20319633	      9.20319633	     18.60340865	      8.92551981	     -1.31216389	     34.54327372	    -10.07380575	      1.25136301	     25.42715443	     25.42715443	      2.64151550	    -12.40165226	      7.42437286	     -9.79531657	      7.08794720	      6.01136790	     52.06061156	    -13.56151046	      7.31221303	    115.88691405	     43.72058055	      0.00000000	      0.00000000	    -19.72574155	     -8.13012620	      6.24172267	     33.32057450	     45.00060164	      0.00000000	      0.00000000
     48.94392857	     -6.57142710	     -7.95506295	      3.34504258	      1.04501936	      0.91170846	      0.47351838	     -0.53434733	      7.52666961	    -15.57899068	     10.37102168	     10.37102168	     19.15801405	      8.22933737	     -1.10769237	     34.16222826	     -9.70320470	      1.47897111	     26.27209448	     26.27209448	      3.10737981	    -13.06241003	      6.97696471	     -9.67642417	      6.73160327	      5.84649455	     51.47043009	    -13.67450398	      7.38735349	    117.31745637	     43.69174972	      0.00000000	      0.00000000	    -19.58921324	     -8.15453165	      6.28480046	     33.02759695	     45.00864506	      0.00000000	      0.00000000
     48.95571429	     -6.31119468	     -7.69294637	      3.28891210	      1.04556107	      0.91219226	      0.47128366	     -0.98322789	      7.00500870	    -15.34923989	     11.24499615	     11.24499615	     19.36049810	      7.80291777	     -1.11883563	     33.59326986	     -9.35862012	      1.56285978	     27.08920903	     27.08920903	      3.70038862	    -13.56364650	      6.63206266	     -9.75182273	      6.38269325	      5.51250899	     50.66548697	    -13.76090006	      7.51076691	    117.86505417	     43.67331209	      0.00000000	      0.00000000	    -19.45948841	     -8.21280009	      6.28066111	     32.88486778	     45.01451876	      0.00000000	      0.00000000
     48.96750000	     -6.44300427	     -7.36588130	      3.14478828	      1.04559689	      0.91242128	      0.46892594	     -0.48601336	      6.25873476	    -14.89790938	     13.07395860	     13.07395860	     19.79918569	      6.71885233	     -1.00649758	     33.27190233	     -8.89065827	      1.71449444	     27.52280401	     27.52280401	      4.39243687	    -14.16674202	      6.46793418	     -9.55226059	      5.98105522	      5.68000193	     49.51490325	    -14.42250256	      7.51350322	    120.01114992	     43.62764722	      0.00000000	      0.00000000	    -18.77125963	     -8.23075524	      6.18725427	     32.33671304	     45.05292811	      0.00000000	      0.00000000
     48.97928571	     -6.37487137	     -7.07445091	      3.07685750	      1.04571258	      0.91325709	      0.46636873	     -0.30035201	      5.55423075	    -14.65630155	     14.69099555	     14.69099555	     19.94745833	      6.07398039	     -1.09340060	     32.74440611	     -8.48696444	      1.71428350	     27.91925637	     27.91925637	      5.13184755	    -14.50624031	      6.37039395	     -9.53395112	      5.63925915	      5.67284394	     48.18233672	    -15.01362309	      7.44622482	    121.33312875	     43.60620756	      0.00000000	      0.00000000	    -18.00826170	     -8.26281496	      6.08866653	     31.84187022	     45.09168800	      0.00000000	      0.00000000
     48.99107143	     -6.04953253	     -6.95905403	      3.12231007	      1.04600355	      0.91473317	      0.46359195	     -0.58641193	      5.08527021	    -14.62727798	     15.88792748	     15.88792748	     19.76718280	      5.71957253	     -1.25073301	     31.93071818	     -8.25143711	      1.75398464	     28.23194455	     28.23194455	      5.86192027	    -14.71187621	      6.12546181	     -9.78590940	      5.57491035	      5.21281272	     46.92076838	    -15.15522030	      7.60533740	    121.52729690	     43.59362958	      0.00000000	      0.00000000	    -17.49017053	     -8.25009972	      6.06002314	     31.84443643	     45.10624079	      0.00000000	      0.00000000
     49.00285714	     -6.18833260	     -6.57602650	      2.99438106	      1.04576383	      0.91571932	      0.46070162	      0.31074564	      4.06191335	    -14.52033440	     18.37412822	     18.37412822	     19.55144243	      5.07633317	     -2.43181879	     31.45166816	     -7.73936196	      1.53971463	     28.29347911	     28.29347911	      6.55613445	    -14.98364672	      6.51547942	     -9.59399367	      5.20101629	      5.86005536	     44.83496157	    -16.53628200	      7.19228022	    123.57177498	     43.57514070	      0.00000000	      0.00000000	    -16.12159585	     -8.28106105	      5.61708385	     30.97408465	     45.21235308	      0.00000000	      0.00000000
     49.01464286	     -5.99526611	     -6.32806723	      2.94593704	      1.04581178	      0.91736863	      0.45774098	      0.67418812	      3.25101119	    -14.40800490	     20.49671145	     20.49671145	     19.19386465	      4.62407172	     -3.08329053	     30.52988234	     -7.41376000	      1.23251249	     28.19192524	     28.19192524	      7.17952388	    -14.88910325	      6.39031466	     -9.70539194	      5.02759828	      5.50690983	     43.09767957	    -16.72057777	      7.39406242	    123.52184774	     43.56994651	      0.00000000	      0.00000000	    -15.47628382	     -8.33200871	      5.49390070	     31.02044573	     45.24419158	      0.00000000	      0.00000000
     49.02642857	     -6.00646797	     -6.10307433	      2.92733090	      1.04556144	      0.91870021	      0.45459513	      1.48455073	      2.34252383	    -14.48666007	     22.90089986	     22.90089986	     17.71141679	      3.97933554	     -6.85606172	     29.80236253	     -7.00779765	      1.10767239	     27.99915426	     27.99915426	      7.82271487	    -14.93820400	      6.81238061	     -9.64414221	      4.88754321	      5.99313431	     40.71489791	    -17.92975807	      6.58648917	    124.63728828	     43.61415732	      0.00000000	      0.00000000	    -14.12445470	     -8.23564943	      4.46280511	     30.64730464	     45.43981111	      0.00000000	      0.00000000
     49.03821429	     -5.88814121	     -5.93829142	      2.85831374	      1.04534155	      0.92023186	      0.45156362	      2.39027631	      1.46424627	    -14.32928244	     25.79197509	     25.79197509	     16.97021673	      3.41680806	     -7.88063650	     28.90579602	     -6.76115805	      0.73883392	     27.75825103	     27.75825103	      8.29905440	    -14.73668743	      6.65815919	     -9.68009354	      4.85672998	      5.63239522	     38.79653077	    -18.17571888	      6.88162579	    124.00735303	     43.62251010	      0.00000000	      0.00000000	    -13.44075833	     -8.29016686	      4.27130982	     30.99537686	     45.48035150	      0.00000000	      0.00000000
